# xmcd
#
# Track frame offsets: 
#        150
#        16479
#        29777
#        47341
#        72545
#        90763
#        125705
#        145697
#        174214
#        193335
#        222684
#        245413
#        264695
#        271982
#        288958
#
# Disc length: 4095 seconds
#
# Revision: 1
# Processed by: cddbd v1.5.2PL0 Copyright (c) Steve Scherf et al.
# Submitted via: ExactAudioCopy v1.0b3
#
DISCID=e50ffd0f
DTITLE=Mikey Jr and the Stone Cold Blues - The 420 Sessions
DYEAR=2003
DGENRE=Blues
TTITLE0=Snatch It Back
TTITLE1=Checkin' Up On My Baby
TTITLE2=I Ain't Drunk
TTITLE3=Walkin' Blues
TTITLE4=Who's Been Talkin'
TTITLE5=Help Me
TTITLE6=Malted Milk
TTITLE7=Bad Boy
TTITLE8=The Same Thing
TTITLE9=Take It Easy
TTITLE10=Travelin' Blues
TTITLE11=Love Her With A Feelin'
TTITLE12=Drunkin Experience
TTITLE13=Where Did You Sleep Last Night
TTITLE14=Bye Bye Birdie
EXTD=
EXTT0=
EXTT1=
EXTT2=
EXTT3=
EXTT4=
EXTT5=
EXTT6=
EXTT7=
EXTT8=
EXTT9=
EXTT10=
EXTT11=
EXTT12=
EXTT13=
EXTT14=
PLAYORDER=
